<svg xmlns="http://www.w3.org/2000/svg" xmlns:xlink="http://www.w3.org/1999/xlink" id="body_1" preserveAspectRatio="xMinYMin meet" viewBox="0 0 793 1121"><defs><clipPath id="1"><path clip-rule="evenodd" d="M0 841L0 -0.9000244L0 -0.9000244L595.3 -0.9000244L595.3 -0.9000244L595.3 841L595.3 841L0 841z" /></clipPath><clipPath id="2"><path clip-rule="evenodd" d="M51.35 22.5L209.75 22.5L209.75 22.5L209.75 93.5L209.75 93.5L51.35 93.5z" /></clipPath><clipPath id="3"><path clip-rule="evenodd" d="M209.75 22.5L399.2 22.5L399.2 22.5L399.2 93.5L399.2 93.5L209.75 93.5z" /></clipPath><clipPath id="4"><path clip-rule="evenodd" d="M399.2 22.5L551.75 22.5L551.75 22.5L551.75 61.25L551.75 61.25L399.2 61.25z" /></clipPath><clipPath id="5"><path clip-rule="evenodd" d="M399.2 61.29999L551.75 61.29999L551.75 61.29999L551.75 93.5L551.75 93.5L399.2 93.5z" /></clipPath><clipPath id="6"><path clip-rule="evenodd" d="M51.35 93.54999L128.75 93.54999L128.75 93.54999L128.75 115L128.75 115L51.35 115z" /></clipPath><clipPath id="7"><path clip-rule="evenodd" d="M209.75 93.54999L290.75 93.54999L290.75 93.54999L290.75 115L290.75 115L209.75 115z" /></clipPath><clipPath id="8"><path clip-rule="evenodd" d="M380.75 93.54999L461.75 93.54999L461.75 93.54999L461.75 115L461.75 115L380.75 115z" /></clipPath><clipPath id="9"><path clip-rule="evenodd" d="M51.35 115.05L128.75 115.05L128.75 115.05L128.75 140.25L128.75 140.25L51.35 140.25z" /></clipPath><clipPath id="10"><path clip-rule="evenodd" d="M209.75 115.05L290.75 115.05L290.75 115.05L290.75 140.25L290.75 140.25L209.75 140.25z" /></clipPath><clipPath id="11"><path clip-rule="evenodd" d="M380.75 115.05L461.75 115.05L461.75 115.05L461.75 140.25L461.75 140.25L380.75 140.25z" /></clipPath><clipPath id="12"><path clip-rule="evenodd" d="M51.35 140.3L128.75 140.3L128.75 140.3L128.75 203.25L128.75 203.25L51.35 203.25z" /></clipPath><clipPath id="13"><path clip-rule="evenodd" d="M128.75 140.3L551.75 140.3L551.75 140.3L551.75 203.25L551.75 203.25L128.75 203.25z" /></clipPath><clipPath id="14"><path clip-rule="evenodd" d="M51.35 203.3L128.75 203.3L128.75 203.3L128.75 233L128.75 233L51.35 233z" /></clipPath><clipPath id="15"><path clip-rule="evenodd" d="M128.75 203.3L399.2 203.3L399.2 203.3L399.2 233L399.2 233L128.75 233z" /></clipPath><clipPath id="16"><path clip-rule="evenodd" d="M399.2 203.3L551.75 203.3L551.75 203.3L551.75 233L551.75 233L399.2 233z" /></clipPath><clipPath id="17"><path clip-rule="evenodd" d="M51.35 233.05L128.75 233.05L128.75 233.05L128.75 264.25L128.75 264.25L51.35 264.25z" /></clipPath><clipPath id="18"><path clip-rule="evenodd" d="M128.75 233.05L399.2 233.05L399.2 233.05L399.2 264.25L399.2 264.25L128.75 264.25z" /></clipPath><clipPath id="19"><path clip-rule="evenodd" d="M399.2 233.05L551.75 233.05L551.75 233.05L551.75 264.25L551.75 264.25L399.2 264.25z" /></clipPath><clipPath id="20"><path clip-rule="evenodd" d="M51.35 264.3L551.75 264.3L551.75 264.3L551.75 333.8L551.75 333.8L51.35 333.8z" /></clipPath><clipPath id="21"><path clip-rule="evenodd" d="M286.05 333.85L431.55 333.85L431.55 333.85L431.55 356.5L431.55 356.5L286.05 356.5z" /></clipPath><clipPath id="22"><path clip-rule="evenodd" d="M431.55 333.85L551.75 333.85L551.75 333.85L551.75 356.5L551.75 356.5L431.55 356.5z" /></clipPath><clipPath id="23"><path clip-rule="evenodd" d="M51.35 356.55L551.75 356.55L551.75 356.55L551.75 426.15L551.75 426.15L51.35 426.15z" /></clipPath><clipPath id="24"><path clip-rule="evenodd" d="M286.05 426.2L431.55 426.2L431.55 426.2L431.55 448.85L431.55 448.85L286.05 448.85z" /></clipPath><clipPath id="25"><path clip-rule="evenodd" d="M431.55 426.2L551.75 426.2L551.75 426.2L551.75 448.85L551.75 448.85L431.55 448.85z" /></clipPath><clipPath id="26"><path clip-rule="evenodd" d="M51.35 448.9L551.75 448.9L551.75 448.9L551.75 518.5L551.75 518.5L51.35 518.5z" /></clipPath><clipPath id="27"><path clip-rule="evenodd" d="M286.05 518.55L431.55 518.55L431.55 518.55L431.55 541.75L431.55 541.75L286.05 541.75z" /></clipPath><clipPath id="28"><path clip-rule="evenodd" d="M431.55 518.55L551.75 518.55L551.75 518.55L551.75 541.75L551.75 541.75L431.55 541.75z" /></clipPath><clipPath id="29"><path clip-rule="evenodd" d="M51.35 541.8L551.75 541.8L551.75 541.8L551.75 611.4L551.75 611.4L51.35 611.4z" /></clipPath><clipPath id="30"><path clip-rule="evenodd" d="M286.05 611.45L431.55 611.45L431.55 611.45L431.55 634.1L431.55 634.1L286.05 634.1z" /></clipPath><clipPath id="31"><path clip-rule="evenodd" d="M431.55 611.45L551.75 611.45L551.75 611.45L551.75 634.1L551.75 634.1L431.55 634.1z" /></clipPath><clipPath id="32"><path clip-rule="evenodd" d="M51.35 634.15L551.75 634.15L551.75 634.15L551.75 703.75L551.75 703.75L51.35 703.75z" /></clipPath><clipPath id="33"><path clip-rule="evenodd" d="M286.05 703.8L431.55 703.8L431.55 703.8L431.55 726.45L431.55 726.45L286.05 726.45z" /></clipPath><clipPath id="34"><path clip-rule="evenodd" d="M431.55 703.8L551.75 703.8L551.75 703.8L551.75 726.45L551.75 726.45L431.55 726.45z" /></clipPath><clipPath id="35"><path clip-rule="evenodd" d="M51.35 726.5L551.75 726.5L551.75 726.5L551.75 755.15L551.75 755.15L51.35 755.15z" /></clipPath><clipPath id="36"><path clip-rule="evenodd" d="M40.75 20.90002L562.3 20.90002L562.3 20.90002L562.3 756.7L562.3 756.7L40.75 756.7z" /></clipPath></defs><g transform="matrix(1.333333 0 0 1.333333 0 0)"><g clip-path="url(#1)"><path transform="matrix(1 0 0 -1 0 841)" d="M0 841.9L595.3 841.9L595.3 841.9L595.3 0L595.3 0L0 0z" stroke="none" fill="#FFFFFF" fill-rule="evenodd" /><g clip-path="url(#2)"><g transform="matrix(0.5476364 0 0 0.5470588 56.75 39.39996)"><g transform="matrix(1 0 0 1 0 0)"><image x="0" y="0" xlink:href="img_01.png" width="275" height="68" /></g></g></g><g clip-path="url(#3)"></g><g clip-path="url(#4)"></g><g clip-path="url(#5)"></g><g clip-path="url(#6)"></g><g clip-path="url(#7)"></g><g clip-path="url(#8)"></g><g clip-path="url(#9)"></g><g clip-path="url(#10)"></g><g clip-path="url(#11)"></g><g clip-path="url(#12)"></g><g clip-path="url(#13)"></g><g clip-path="url(#14)"></g><g clip-path="url(#15)"></g><g clip-path="url(#16)"></g><g clip-path="url(#17)"></g><g clip-path="url(#18)"></g><g clip-path="url(#19)"></g><g clip-path="url(#20)"></g><g clip-path="url(#21)"></g><g clip-path="url(#22)"></g><g clip-path="url(#23)"></g><g clip-path="url(#24)"></g><g clip-path="url(#25)"></g><g clip-path="url(#26)"></g><g clip-path="url(#27)"></g><g clip-path="url(#28)"></g><g clip-path="url(#29)"></g><g clip-path="url(#30)"></g><g clip-path="url(#31)"></g><g clip-path="url(#32)"></g><g clip-path="url(#33)"></g><g clip-path="url(#34)"></g><g clip-path="url(#35)"></g><g clip-path="url(#36)"><path transform="matrix(1 0 0 -1 0 841)" d="M51.11 747.21L551.99 747.21" stroke="#000000" stroke-width="0.48" fill="none" /><path transform="matrix(1 0 0 -1 0 841)" d="M51.11 725.71L551.99 725.71" stroke="#000000" stroke-width="0.48" fill="none" /><path transform="matrix(1 0 0 -1 0 841)" d="M51.11 700.46L551.99 700.46" stroke="#000000" stroke-width="0.48" fill="none" /><path transform="matrix(1 0 0 -1 0 841)" d="M51.11 637.46L551.99 637.46" stroke="#000000" stroke-width="0.48" fill="none" /><path transform="matrix(1 0 0 -1 0 841)" d="M51.11 607.71L551.99 607.71" stroke="#000000" stroke-width="0.48" fill="none" /><path transform="matrix(1 0 0 -1 0 841)" d="M51.11 576.46L551.99 576.46" stroke="#000000" stroke-width="0.48" fill="none" /><path transform="matrix(1 0 0 -1 0 841)" d="M51.11 484.21L551.99 484.21" stroke="#000000" stroke-width="0.48" fill="none" /><path transform="matrix(1 0 0 -1 0 841)" d="M51.11 391.86L551.99 391.86" stroke="#000000" stroke-width="0.48" fill="none" /><path transform="matrix(1 0 0 -1 0 841)" d="M51.11 298.96L551.99 298.96" stroke="#000000" stroke-width="0.48" fill="none" /><path transform="matrix(1 0 0 -1 0 841)" d="M51.11 206.61L551.99 206.61" stroke="#000000" stroke-width="0.48" fill="none" /><path transform="matrix(1 0 0 -1 0 841)" d="M51.11 114.26L551.99 114.26" stroke="#000000" stroke-width="0.48" fill="none" /><path transform="matrix(1 0 0 -1 0 841)" d="M51.11 86.1101L551.99 86.1101" stroke="#000000" stroke-width="0.48" fill="none" /><path transform="matrix(1 0 0 -1 0 841)" d="M51.35 747.45L51.35 85.8701" stroke="#000000" stroke-width="0.48" fill="none" /><path transform="matrix(1 0 0 -1 0 841)" d="M128.75 747.45L128.75 576.7" stroke="#000000" stroke-width="0.48" fill="none" /><path transform="matrix(1 0 0 -1 0 841)" d="M209.75 747.45L209.75 700.7" stroke="#000000" stroke-width="0.48" fill="none" /><path transform="matrix(1 0 0 -1 0 841)" d="M290.75 747.45L290.75 700.7" stroke="#000000" stroke-width="0.48" fill="none" /><path transform="matrix(1 0 0 -1 0 841)" d="M380.75 747.45L380.75 700.7" stroke="#000000" stroke-width="0.48" fill="none" /><path transform="matrix(1 0 0 -1 0 841)" d="M399.2 637.7L399.2 576.7" stroke="#000000" stroke-width="0.48" fill="none" /><path transform="matrix(1 0 0 -1 0 841)" d="M461.75 747.45L461.75 700.7" stroke="#000000" stroke-width="0.48" fill="none" /><path transform="matrix(1 0 0 -1 0 841)" d="M551.75 746.97L551.75 85.8701" stroke="#000000" stroke-width="0.48" fill="none" /></g></g></g></svg>